<svg xmlns="http://www.w3.org/2000/svg" viewBox="0 0 34 30">
  <path d="M21.35 13.74 24.33.88a.7.7 0 0 0-.69-.88H20.2a.71.71 0 0 0-.6.33l-1.85 3.42h-2.9a.7.7 0 0 0-.7.7v2.35a.7.7 0 0 0 .7.7h.88l-3.28 6.22m0 2.56 3.28 6.22h-.88a.7.7 0 0 0-.7.7v2.34a.7.7 0 0 0 .7.7h2.9l1.85 3.42a.72.72 0 0 0 .6.33h3.42a.7.7 0 0 0 .68-.88l-2.97-12.86" fill="#c1cbcd" fill-rule="evenodd"/>
  <path d="M22.36 11.74a45 45 0 0 1 5.3.46l2.35-3.89a.71.71 0 0 1 .61-.34h2.52a.7.7 0 0 1 .69.84l-.98 4.86a1.35 1.35 0 0 1 0 2.67l.98 4.85a.7.7 0 0 1-.7.84h-2.51a.71.71 0 0 1-.61-.34l-2.35-3.89a45 45 0 0 1-5.3.46l-8.89.02H6.14c-3.39 0-6.14-1.47-6.14-3.28s2.75-3.28 6.14-3.28h7.33Z" fill="#dde7ea" fill-rule="evenodd"/>
</svg>
